<svg height="512pt" viewBox="0 -23 512.001 512" width="512pt" xmlns="http://www.w3.org/2000/svg"><path d="m100.214844 466.003906h-20.621094c-17.136719 0-31.027344-13.890625-31.027344-31.027344v-89.730468h82.671875v89.730468c0 17.136719-13.890625 31.027344-31.023437 31.027344zm0 0" fill="#545464"/><path d="m80.21875 345.246094v120.757812h19.996094c17.132812 0 31.023437-13.890625 31.023437-31.023437v-89.734375zm0 0" fill="#394856"/><path d="m432.40625 466.003906h-20.621094c-17.132812 0-31.023437-13.890625-31.023437-31.027344v-89.730468h82.671875v89.730468c0 17.136719-13.890625 31.027344-31.027344 31.027344zm0 0" fill="#545464"/><path d="m412.410156 345.246094v120.757812h19.996094c17.136719 0 31.027344-13.890625 31.027344-31.023437v-89.734375zm0 0" fill="#394856"/><path d="m502.089844 220.191406h-29.78125c-5.894532 0-11.070313 3.925782-12.652344 9.605469l-7.246094 25.992187h49.679688c5.472656 0 9.910156-4.4375 9.910156-9.910156v-15.777344c0-5.472656-4.4375-9.910156-9.910156-9.910156zm0 0" fill="#e35052"/><path d="m9.910156 220.191406h29.78125c5.894532 0 11.070313 3.925782 12.652344 9.605469l7.246094 25.992187h-49.679688c-5.472656 0-9.910156-4.4375-9.910156-9.910156v-15.777344c0-5.472656 4.4375-9.910156 9.910156-9.910156zm0 0" fill="#e35052"/><path d="m318.902344 0h-125.804688c-6.109375 0-11.0625 4.953125-11.0625 11.066406v20.472656c0 6.109376 4.953125 11.0625 11.0625 11.0625h125.804688c6.109375 0 11.0625-4.953124 11.0625-11.0625v-20.472656c0-6.113281-4.953125-11.066406-11.0625-11.066406zm0 0" fill="#28bfa6"/><path d="m318.902344 0h-39.960938v42.601562h39.960938c6.109375 0 11.0625-4.953124 11.0625-11.0625v-20.472656c0-6.113281-4.953125-11.066406-11.0625-11.066406zm0 0" fill="#1ab29b"/><path d="m346.308594 41.574219h-180.617188c-8.777344 0-15.886718 7.109375-15.886718 15.882812v29.394531c0 8.773438 7.109374 15.886719 15.886718 15.886719h180.617188c8.777344 0 15.886718-7.113281 15.886718-15.886719v-29.394531c0-8.773437-7.109374-15.882812-15.886718-15.882812zm0 0" fill="#fdbd37"/><path d="m346.308594 41.574219h-34.226563v61.164062h34.226563c8.777344 0 15.886718-7.113281 15.886718-15.886719v-29.394531c0-8.773437-7.109374-15.882812-15.886718-15.882812zm0 0" fill="#fa9a39"/><path d="m458.578125 250.800781-34.523437-134.121093c-2.019532-8.761719-9.824219-14.972657-18.820313-14.972657h-298.46875c-8.996094 0-16.800781 6.207031-18.820313 14.972657l-34.523437 134.121093c-.84375 3.660157-2.992187 6.886719-6.039063 9.078125l-17.164062 12.339844c-9.898438 7.113281-15.765625 18.558594-15.765625 30.746094v59.933594c0 19.46875 15.785156 35.253906 35.257813 35.253906h412.578124c19.472657 0 35.257813-15.785156 35.257813-35.253906v-59.933594c0-12.1875-5.867187-23.632813-15.765625-30.746094l-17.164062-12.339844c-3.046876-2.191406-5.195313-5.417968-6.039063-9.078125zm0 0" fill="#fc6a58"/><path d="m481.78125 272.214844-17.164062-12.335938c-3.046876-2.195312-5.195313-5.417968-6.039063-9.078125l-34.523437-134.121093c-2.023438-8.765626-9.824219-14.972657-18.820313-14.972657h-51.019531c8.992187 0 16.796875 6.207031 18.820312 14.972657l34.519532 134.121093c.84375 3.660157 2.992187 6.882813 6.042968 9.078125l17.164063 12.335938c9.894531 7.117187 15.761719 18.558594 15.761719 30.75v95.1875h15.765624c19.472657 0 35.257813-15.785156 35.257813-35.257813v-59.933593c0-12.183594-5.867187-23.628907-15.765625-30.746094zm0 0" fill="#e35052"/><path d="m426.097656 258.296875-29.839844-114.878906c-1.28125-4.933594-5.730468-8.375-10.824218-8.375h-258.863282c-5.09375 0-9.546874 3.445312-10.828124 8.375l-29.839844 114.878906c-1.226563 9.832031 6.441406 18.519531 16.351562 18.519531h307.496094c9.90625 0 17.574219-8.6875 16.347656-18.519531zm0 0" fill="#d7dee3"/><path d="m426.097656 258.296875-29.839844-114.878906c-1.28125-4.933594-5.730468-8.375-10.824218-8.375h-44.558594l32.015625 123.253906 2.3125 18.519531h34.546875c9.90625 0 17.574219-8.6875 16.347656-18.519531zm0 0" fill="#c7ced1"/><path d="m109.09375 351.53125h-43.796875c-6.480469 0-11.734375-5.253906-11.734375-11.734375v-23.964844c0-6.480469 5.253906-11.734375 11.734375-11.734375h43.796875c6.480469 0 11.734375 5.253906 11.734375 11.734375v23.964844c0 6.480469-5.253906 11.734375-11.734375 11.734375zm0 0" fill="#fed15b"/><path d="m446.703125 351.53125h-43.796875c-6.480469 0-11.734375-5.253906-11.734375-11.734375v-23.964844c0-6.480469 5.253906-11.734375 11.734375-11.734375h43.796875c6.480469 0 11.734375 5.253906 11.734375 11.734375v23.964844c0 6.480469-5.253906 11.734375-11.734375 11.734375zm0 0" fill="#fed15b"/><path d="m341.519531 317.183594h-171.039062c-4.265625 0-7.726563-3.460938-7.726563-7.726563s3.460938-7.726562 7.726563-7.726562h171.039062c4.269531 0 7.726563 3.460937 7.726563 7.726562s-3.457032 7.726563-7.726563 7.726563zm0 0" fill="#545464"/><path d="m319.691406 349.527344h-127.386718c-4.265626 0-7.726563-3.460938-7.726563-7.726563 0-4.269531 3.460937-7.726562 7.726563-7.726562h127.386718c4.269532 0 7.726563 3.457031 7.726563 7.726562.003906 4.265625-3.457031 7.726563-7.726563 7.726563zm0 0" fill="#545464"/><g fill="#394856"><path d="m212.214844 190.722656c0 16.78125-13.605469 30.386719-30.386719 30.386719-16.785156 0-30.390625-13.605469-30.390625-30.386719s13.605469-30.386718 30.390625-30.386718c16.78125 0 30.386719 13.605468 30.386719 30.386718zm0 0"/><path d="m360.5625 190.722656c0 16.78125-13.605469 30.386719-30.390625 30.386719-16.78125 0-30.386719-13.605469-30.386719-30.386719s13.605469-30.386718 30.386719-30.386718c16.785156 0 30.390625 13.605468 30.390625 30.386718zm0 0"/><path d="m276.296875 201.996094c0 11.210937-9.085937 20.296875-20.296875 20.296875s-20.296875-9.085938-20.296875-20.296875c0-11.210938 9.085937-20.296875 20.296875-20.296875s20.296875 9.085937 20.296875 20.296875zm0 0"/></g><path d="m400.222656 276.816406c-.953125-13.667968-12.335937-24.464844-26.246094-24.464844h-235.953124c-13.910157 0-25.292969 10.796876-26.246094 24.464844zm0 0" fill="#b2b9bf"/><path d="m373.644531 252.351562c-4.042969-17.882812-20.019531-31.242187-39.125-31.242187h-8.691406c-19.105469 0-35.082031 13.359375-39.125 31.242187zm0 0" fill="#375779"/><path d="m285.703125 252.351562v-3.257812c0-14.800781-12-26.800781-26.800781-26.800781h-5.804688c-14.800781 0-26.800781 12-26.800781 26.800781v3.257812zm0 0" fill="#375779"/><path d="m225.296875 252.351562c-4.042969-17.882812-20.019531-31.242187-39.125-31.242187h-8.691406c-19.105469 0-35.082031 13.359375-39.125 31.242187zm0 0" fill="#375779"/></svg>