<svg id="color" height="512" viewBox="0 0 24 24" width="512" xmlns="http://www.w3.org/2000/svg"><path d="m7.006 24c-.553 0-1-.447-1-1v-8.75c0-.553.447-1 1-1s1 .447 1 1v8.75c0 .553-.447 1-1 1" fill="#607d8b"/><path d="m6.006 14.913v8.087c0 .553.447 1 1 1s1-.447 1-1v-8.036l-.905.131c-.087.013-.175.019-.263.019-.29 0-.575-.07-.832-.201" fill="#546d79"/><path d="m13.006 6c-1.654 0-3-1.346-3-3s1.346-3 3-3 3 1.346 3 3-1.346 3-3 3" fill="#ffcc80"/><path d="m16.326 24h-3.326c-.552 0-1-.447-1-1v-10.25l-1.956 1.471c-.393.351-.876.575-1.397.65l-1.546.224c-.525.077-1.06-.081-1.462-.43-.404-.351-.636-.859-.636-1.396 0-.701.388-1.333 1.012-1.647l2.784-1.405c.183-.092.338-.23.451-.4l.506-.764c.848-1.283 2.283-2.053 3.82-2.053h1.119c.695 0 1.35.259 1.841.728 1.606 1.531 2.39 4.123 2.466 8.157.021 1.13-.302 2.231-.935 3.187l-.309.466c-.445.672-.683 1.46-.683 2.267v1.445c.001.414-.335.75-.749.75" fill="#ffcc80"/><g fill="#deb26f"><path d="m13.006 0c-1.654 0-3 1.346-3 3s1.346 3 3 3z"/><path d="m13.006 7.036c-1.316.165-2.508.895-3.251 2.017l-.506.763c-.113.17-.268.309-.451.4l-2.784 1.405c-.624.314-1.012.946-1.012 1.647 0 .536.231 1.045.636 1.396.335.291.762.449 1.199.449.087 0 .175-.006.263-.019l1.546-.224c.522-.075 1.004-.3 1.397-.65l1.957-1.47v10.25c0 .553.448 1 1 1h.006z"/></g></svg>